<svg width="342" height="310" viewBox="0 0 342 310" fill="none" xmlns="http://www.w3.org/2000/svg">
<g filter="url(#filter0_d_875_3501)">
<rect x="12" y="6" width="153" height="139" rx="2.4" fill="white"/>
</g>
<rect x="21.5381" y="15.5859" width="135.514" height="119.828" fill="#FAFAFA" stroke="#E5E9EA" stroke-width="0.6"/>
<rect x="21.5381" y="75.5" width="135.514" height="0.468076" fill="#E5E9EA"/>
<rect x="21.5381" y="86.7334" width="135.514" height="0.468076" fill="#E5E9EA"/>
<rect x="21.5381" y="97.9678" width="135.514" height="0.468076" fill="#E5E9EA"/>
<rect x="21.5381" y="109.201" width="135.514" height="0.468076" fill="#E5E9EA"/>
<rect x="21.5381" y="30.5645" width="135.514" height="0.468076" fill="#E5E9EA"/>
<rect x="21.5381" y="19.3301" width="135.514" height="0.468076" fill="#E5E9EA"/>
<rect x="21.5381" y="41.7979" width="135.514" height="0.468076" fill="#E5E9EA"/>
<rect x="21.5381" y="53.0322" width="135.514" height="0.468076" fill="#E5E9EA"/>
<rect x="21.5381" y="64.2656" width="135.514" height="0.468076" fill="#E5E9EA"/>
<rect x="21.5381" y="120.436" width="135.514" height="0.468076" fill="#E5E9EA"/>
<rect x="21.5381" y="131.669" width="135.514" height="0.468076" fill="#E5E9EA"/>
<path d="M25.1143 75.5H43.3948V102.457C43.3948 104.114 42.0516 105.457 40.3948 105.457H28.1143C26.4574 105.457 25.1143 104.114 25.1143 102.457V75.5Z" fill="#242D52"/>
<path d="M25.1143 75.5H43.3948V94.9677C43.3948 96.6245 42.0516 97.9677 40.3948 97.9677H28.1143C26.4574 97.9677 25.1143 96.6245 25.1143 94.9677V75.5Z" fill="#F3603C"/>
<path d="M52.9326 75.3428H71.2131V54.9338C71.2131 53.277 69.87 51.9338 68.2131 51.9338H55.9326C54.2758 51.9338 52.9326 53.277 52.9326 54.9338V75.3428Z" fill="#F3603C"/>
<path d="M52.9326 75.3428H71.2131V106.052C71.2131 107.708 69.87 109.052 68.2131 109.052H55.9326C54.2758 109.052 52.9326 107.708 52.9326 106.052V75.3428Z" fill="#242D52"/>
<path d="M107.377 75.499H125.657V33.364C125.657 31.7071 124.314 30.364 122.657 30.364H110.377C108.72 30.364 107.377 31.7071 107.377 33.364V75.499Z" fill="#242D52"/>
<path d="M107.377 75.499H125.657V44.6477C125.657 42.9909 124.314 41.6477 122.657 41.6477H110.377C108.72 41.6477 107.377 42.9909 107.377 44.6477V75.499Z" fill="#F3603C"/>
<path d="M135.195 75.5H153.476V110.046C153.476 111.703 152.133 113.046 150.476 113.046H138.195C136.538 113.046 135.195 111.703 135.195 110.046V75.5Z" fill="#242D52"/>
<path d="M135.195 75.5H153.476V102.537C153.476 104.194 152.133 105.537 150.476 105.537H138.195C136.538 105.537 135.195 104.194 135.195 102.537V75.5Z" fill="#F3603C"/>
<path d="M79.9561 75.5H98.2366V128.819C98.2366 130.476 96.8934 131.819 95.2366 131.819H82.9561C81.2992 131.819 79.9561 130.476 79.9561 128.819V75.5Z" fill="#F3603C"/>
<path d="M79.9561 75.5H98.2366V95.0276C98.2366 96.6844 96.8934 98.0276 95.2366 98.0276H82.9561C81.2992 98.0276 79.9561 96.6844 79.9561 95.0276V75.5Z" fill="#242D52"/>
<g filter="url(#filter1_d_875_3501)">
<rect x="177" y="6" width="153" height="139" rx="2.4" fill="white"/>
</g>
<path d="M289.387 75.5004C289.387 95.402 273.352 111.431 253.699 111.431C234.046 111.431 218.011 95.402 218.011 75.5004C218.011 55.5987 234.046 39.5693 253.699 39.5693C273.352 39.5693 289.387 55.5987 289.387 75.5004Z" stroke="white" stroke-width="24"/>
<path d="M253.699 27.5693C266.89 27.5693 278.829 32.9519 287.463 41.651L278.945 50.104C285.404 56.6119 289.387 65.5714 289.387 75.5004H301.387C301.387 88.7143 296.067 100.679 287.463 109.35L278.945 100.897C272.466 107.425 263.553 111.431 253.699 111.431V123.431C240.509 123.431 228.569 118.049 219.936 109.35L228.453 100.897C221.994 94.3889 218.011 85.4294 218.011 75.5004H206.011C206.011 62.2865 211.331 50.3214 219.936 41.651L228.453 50.104C234.932 43.5755 243.845 39.5693 253.699 39.5693V27.5693Z" stroke="#F3603C" stroke-width="24" stroke-dasharray="301.2"/>
<path d="M253.699 27.5693C266.89 27.5693 278.829 32.9519 287.463 41.651L278.945 50.104C285.404 56.6119 289.387 65.5714 289.387 75.5004H301.387C301.387 88.7143 296.067 100.679 287.463 109.35L278.945 100.897C272.466 107.425 263.553 111.431 253.699 111.431V123.431C240.509 123.431 228.569 118.049 219.936 109.35L228.453 100.897C221.994 94.3889 218.011 85.4294 218.011 75.5004H206.011C206.011 62.2865 211.331 50.3214 219.936 41.651L228.453 50.104C234.932 43.5755 243.845 39.5693 253.699 39.5693V27.5693Z" stroke="#242D52" stroke-width="24" stroke-dasharray="204"/>
<g filter="url(#filter2_d_875_3501)">
<rect x="95" y="153" width="153" height="139" rx="2.4" fill="white"/>
</g>
<rect x="104.538" y="236.08" width="62.3922" height="46.3333" rx="2.4" fill="#F3603C"/>
<path fill-rule="evenodd" clip-rule="evenodd" d="M140.859 267.098C140.506 267.457 140.077 267.636 139.573 267.636C139.068 267.636 138.638 267.457 138.283 267.098C137.928 266.739 137.751 266.304 137.751 265.793C137.751 265.29 137.929 264.859 138.286 264.5C138.643 264.141 139.072 263.962 139.573 263.962C140.077 263.962 140.506 264.141 140.859 264.5C141.212 264.859 141.389 265.29 141.389 265.793C141.389 266.3 141.212 266.735 140.859 267.098ZM125.315 272.428V264.085H124.046L122.026 265.858V267.262L123.976 265.501V272.428H125.315ZM118.098 271.223V268.912H120.392V267.859H118.098V265.548H117.05V267.859H114.751V268.912H117.05V271.223H118.098ZM129.682 272.305C129.521 272.465 129.328 272.545 129.103 272.545C128.882 272.545 128.69 272.464 128.527 272.302C128.364 272.141 128.282 271.948 128.282 271.726C128.282 271.5 128.364 271.306 128.527 271.144C128.69 270.982 128.882 270.901 129.103 270.901C129.328 270.901 129.521 270.982 129.682 271.144C129.844 271.306 129.924 271.5 129.924 271.726C129.924 271.952 129.844 272.145 129.682 272.305ZM134.155 272.539C135.008 272.539 135.698 272.277 136.224 271.752C136.75 271.228 137.013 270.538 137.013 269.684C137.013 268.834 136.755 268.179 136.239 267.721C135.723 267.263 134.944 267.034 133.904 267.034H132.996L133.177 265.308H136.635V264.091H132.007L131.576 268.18H133.712C135.012 268.18 135.662 268.697 135.662 269.731C135.662 270.199 135.526 270.576 135.252 270.863C134.978 271.15 134.603 271.293 134.126 271.293C133.71 271.293 133.356 271.172 133.063 270.93C132.77 270.689 132.624 270.326 132.624 269.842C132.624 269.745 132.637 269.604 132.664 269.421L131.32 269.503C131.3 269.67 131.291 269.811 131.291 269.924C131.291 270.466 131.424 270.939 131.692 271.343C131.96 271.747 132.307 272.047 132.734 272.244C133.161 272.441 133.635 272.539 134.155 272.539ZM140.213 272.434L144.602 264.073H143.438L139.06 272.434H140.213ZM138.932 266.44C139.111 266.617 139.324 266.706 139.573 266.706C139.829 266.706 140.043 266.617 140.216 266.44C140.389 266.262 140.475 266.047 140.475 265.793C140.475 265.544 140.388 265.331 140.213 265.156C140.038 264.98 139.825 264.892 139.573 264.892C139.324 264.892 139.111 264.979 138.932 265.153C138.754 265.326 138.665 265.54 138.665 265.793C138.665 266.047 138.754 266.262 138.932 266.44ZM144.154 272.528C144.655 272.528 145.081 272.348 145.432 271.989C145.783 271.631 145.959 271.2 145.959 270.696C145.959 270.189 145.782 269.757 145.429 269.4C145.076 269.043 144.651 268.865 144.154 268.865C143.65 268.865 143.219 269.043 142.862 269.4C142.505 269.757 142.326 270.189 142.326 270.696C142.326 271.203 142.504 271.635 142.859 271.992C143.214 272.349 143.646 272.528 144.154 272.528ZM143.508 271.337C143.683 271.515 143.898 271.603 144.154 271.603C144.402 271.603 144.616 271.515 144.794 271.337C144.973 271.16 145.062 270.946 145.062 270.696C145.062 270.447 144.972 270.232 144.792 270.053C144.611 269.873 144.399 269.784 144.154 269.784C143.898 269.784 143.683 269.871 143.508 270.047C143.333 270.222 143.246 270.439 143.246 270.696C143.246 270.946 143.333 271.16 143.508 271.337Z" fill="white"/>
<rect x="176.07" y="236.08" width="62.3922" height="46.3333" rx="2.4" fill="#FAFAFA"/>
<path fill-rule="evenodd" clip-rule="evenodd" d="M208.394 272.428V271.211H204.563L207.003 268.672C207.395 268.262 207.682 267.878 207.864 267.519C208.047 267.16 208.138 266.768 208.138 266.343C208.138 265.602 207.891 265.019 207.398 264.594C206.906 264.169 206.271 263.956 205.495 263.956C204.668 263.956 204.012 264.188 203.527 264.652C203.042 265.116 202.8 265.782 202.8 266.647V267.116L204.133 267.244V266.63C204.133 266.088 204.255 265.693 204.499 265.445C204.744 265.197 205.078 265.074 205.501 265.074C205.904 265.074 206.224 265.186 206.461 265.41C206.698 265.634 206.816 265.947 206.816 266.349C206.816 266.868 206.539 267.414 205.984 267.987L202.666 271.41V272.428H208.394ZM189.078 272.539C189.629 272.539 190.123 272.44 190.562 272.241C191.001 272.038 191.349 271.742 191.607 271.352C191.865 270.962 191.994 270.511 191.994 270C191.994 269.497 191.866 269.058 191.61 268.684C191.354 268.309 191.006 268.024 190.568 267.829C190.878 267.646 191.123 267.407 191.301 267.113C191.48 266.818 191.569 266.49 191.569 266.127C191.569 265.495 191.333 264.977 190.862 264.573C190.39 264.17 189.796 263.968 189.078 263.968C188.348 263.968 187.746 264.169 187.273 264.57C186.8 264.972 186.563 265.491 186.563 266.127C186.563 266.49 186.654 266.818 186.836 267.113C187.019 267.407 187.269 267.646 187.587 267.829C187.141 268.021 186.791 268.303 186.537 268.678C186.282 269.052 186.155 269.493 186.155 270C186.155 270.511 186.284 270.962 186.542 271.352C186.8 271.742 187.15 272.037 187.59 272.238C188.031 272.439 188.526 272.539 189.078 272.539ZM189.078 267.414C188.721 267.414 188.42 267.298 188.175 267.066C187.931 266.834 187.809 266.546 187.809 266.203C187.809 265.867 187.931 265.586 188.175 265.357C188.42 265.129 188.721 265.015 189.078 265.015C189.431 265.015 189.73 265.129 189.974 265.357C190.219 265.586 190.341 265.867 190.341 266.203C190.341 266.542 190.218 266.829 189.971 267.063C189.725 267.297 189.427 267.414 189.078 267.414ZM187.948 270.919C188.247 271.188 188.624 271.322 189.078 271.322C189.524 271.322 189.896 271.187 190.195 270.916C190.494 270.645 190.644 270.287 190.644 269.842C190.644 269.401 190.494 269.048 190.195 268.783C189.896 268.518 189.524 268.385 189.078 268.385C188.624 268.385 188.247 268.518 187.948 268.783C187.649 269.048 187.5 269.401 187.5 269.842C187.5 270.291 187.649 270.65 187.948 270.919ZM195.596 272.539C196.147 272.539 196.642 272.44 197.08 272.241C197.519 272.038 197.867 271.742 198.125 271.352C198.383 270.962 198.512 270.511 198.512 270C198.512 269.497 198.384 269.058 198.128 268.684C197.872 268.309 197.525 268.024 197.086 267.829C197.397 267.646 197.641 267.407 197.82 267.113C197.998 266.818 198.087 266.49 198.087 266.127C198.087 265.495 197.852 264.977 197.38 264.573C196.909 264.17 196.314 263.968 195.596 263.968C194.866 263.968 194.265 264.169 193.791 264.57C193.318 264.972 193.081 265.491 193.081 266.127C193.081 266.49 193.172 266.818 193.355 267.113C193.537 267.407 193.787 267.646 194.106 267.829C193.659 268.021 193.309 268.303 193.055 268.678C192.801 269.052 192.674 269.493 192.674 270C192.674 270.511 192.803 270.962 193.061 271.352C193.319 271.742 193.668 272.037 194.109 272.238C194.549 272.439 195.045 272.539 195.596 272.539ZM194.694 267.066C194.938 267.298 195.239 267.414 195.596 267.414C195.945 267.414 196.243 267.297 196.489 267.063C196.736 266.829 196.859 266.542 196.859 266.203C196.859 265.867 196.737 265.586 196.492 265.357C196.248 265.129 195.949 265.015 195.596 265.015C195.239 265.015 194.938 265.129 194.694 265.357C194.449 265.586 194.327 265.867 194.327 266.203C194.327 266.546 194.449 266.834 194.694 267.066ZM195.596 271.322C195.142 271.322 194.765 271.188 194.467 270.919C194.168 270.65 194.018 270.291 194.018 269.842C194.018 269.401 194.168 269.048 194.467 268.783C194.765 268.518 195.142 268.385 195.596 268.385C196.042 268.385 196.415 268.518 196.714 268.783C197.012 269.048 197.162 269.401 197.162 269.842C197.162 270.287 197.012 270.645 196.714 270.916C196.415 271.187 196.042 271.322 195.596 271.322ZM201.139 272.305C200.978 272.465 200.785 272.545 200.56 272.545C200.339 272.545 200.147 272.464 199.984 272.302C199.821 272.141 199.739 271.948 199.739 271.726C199.739 271.5 199.821 271.306 199.984 271.144C200.147 270.982 200.339 270.901 200.56 270.901C200.785 270.901 200.978 270.982 201.139 271.144C201.3 271.306 201.381 271.5 201.381 271.726C201.381 271.952 201.3 272.145 201.139 272.305ZM214.103 270.796V272.428H212.764V270.796H208.864V269.579L212.06 264.085H214.103V269.585H215.244V270.796H214.103ZM212.764 269.585H210.168L212.764 264.951V269.585ZM218.834 267.098C218.481 267.457 218.052 267.636 217.548 267.636C217.043 267.636 216.613 267.457 216.258 267.098C215.903 266.739 215.726 266.304 215.726 265.793C215.726 265.29 215.904 264.859 216.261 264.5C216.618 264.141 217.047 263.962 217.548 263.962C218.052 263.962 218.481 264.141 218.834 264.5C219.187 264.859 219.364 265.29 219.364 265.793C219.364 266.3 219.187 266.735 218.834 267.098ZM218.188 272.434L222.577 264.073H221.413L217.035 272.434H218.188ZM216.907 266.44C217.086 266.617 217.299 266.706 217.548 266.706C217.804 266.706 218.018 266.617 218.191 266.44C218.364 266.262 218.45 266.047 218.45 265.793C218.45 265.544 218.363 265.331 218.188 265.156C218.013 264.98 217.8 264.892 217.548 264.892C217.299 264.892 217.086 264.979 216.907 265.153C216.729 265.326 216.64 265.54 216.64 265.793C216.64 266.047 216.729 266.262 216.907 266.44ZM222.129 272.528C222.63 272.528 223.056 272.348 223.407 271.989C223.758 271.631 223.934 271.2 223.934 270.696C223.934 270.189 223.757 269.757 223.404 269.4C223.051 269.043 222.626 268.865 222.129 268.865C221.625 268.865 221.194 269.043 220.837 269.4C220.48 269.757 220.301 270.189 220.301 270.696C220.301 271.203 220.479 271.635 220.834 271.992C221.189 272.349 221.621 272.528 222.129 272.528ZM221.483 271.337C221.658 271.515 221.873 271.603 222.129 271.603C222.378 271.603 222.591 271.515 222.769 271.337C222.948 271.16 223.037 270.946 223.037 270.696C223.037 270.447 222.947 270.232 222.767 270.053C222.586 269.873 222.374 269.784 222.129 269.784C221.873 269.784 221.658 269.871 221.483 270.047C221.308 270.222 221.221 270.439 221.221 270.696C221.221 270.946 221.308 271.16 221.483 271.337Z" fill="#1E272E"/>
<rect x="104.538" y="162.586" width="133.925" height="63.908" rx="2.4" fill="#FAFAFA"/>
<path fill-rule="evenodd" clip-rule="evenodd" d="M184.23 201.143C183.476 201.908 182.562 202.291 181.485 202.291C180.409 202.291 179.492 201.908 178.734 201.143C177.977 200.377 177.598 199.449 177.598 198.359C177.598 197.286 177.979 196.366 178.741 195.6C179.502 194.835 180.417 194.452 181.485 194.452C182.562 194.452 183.476 194.835 184.23 195.6C184.983 196.366 185.36 197.286 185.36 198.359C185.36 199.441 184.983 200.369 184.23 201.143ZM124.644 212.114C123.709 212.539 122.653 212.751 121.477 212.751C120.302 212.751 119.244 212.537 118.304 212.108C117.365 211.679 116.62 211.049 116.069 210.217C115.518 209.385 115.243 208.424 115.243 207.334C115.243 206.252 115.514 205.312 116.057 204.513C116.599 203.714 117.346 203.111 118.298 202.703C117.619 202.312 117.085 201.802 116.696 201.174C116.307 200.545 116.112 199.844 116.112 199.071C116.112 197.714 116.618 196.607 117.628 195.75C118.638 194.893 119.921 194.465 121.477 194.465C123.009 194.465 124.278 194.895 125.284 195.757C126.29 196.618 126.793 197.722 126.793 199.071C126.793 199.844 126.602 200.545 126.221 201.174C125.841 201.802 125.319 202.312 124.657 202.703C125.592 203.119 126.333 203.726 126.88 204.525C127.426 205.324 127.699 206.26 127.699 207.334C127.699 208.424 127.424 209.385 126.873 210.217C126.323 211.049 125.58 211.682 124.644 212.114ZM119.552 201.074C120.074 201.569 120.716 201.817 121.477 201.817C122.223 201.817 122.858 201.567 123.384 201.068C123.909 200.568 124.172 199.957 124.172 199.233C124.172 198.517 123.912 197.916 123.39 197.429C122.868 196.942 122.231 196.699 121.477 196.699C120.716 196.699 120.074 196.942 119.552 197.429C119.031 197.916 118.77 198.517 118.77 199.233C118.77 199.965 119.031 200.579 119.552 201.074ZM121.477 210.155C120.509 210.155 119.706 209.867 119.068 209.293C118.431 208.719 118.112 207.954 118.112 206.997C118.112 206.056 118.431 205.303 119.068 204.737C119.706 204.171 120.509 203.889 121.477 203.889C122.43 203.889 123.224 204.171 123.862 204.737C124.499 205.303 124.818 206.056 124.818 206.997C124.818 207.945 124.499 208.709 123.862 209.287C123.224 209.865 122.43 210.155 121.477 210.155ZM139.994 204.9L134.269 212.514H130.953L135.672 206.41C135.316 206.485 134.944 206.522 134.554 206.522C133.569 206.522 132.65 206.289 131.797 205.823C130.945 205.357 130.247 204.673 129.705 203.77C129.163 202.867 128.887 201.833 128.879 200.668C128.871 199.478 129.154 198.407 129.73 197.454C130.305 196.501 131.075 195.769 132.04 195.257C133.004 194.745 134.062 194.49 135.213 194.49C136.388 194.49 137.458 194.748 138.423 195.263C139.387 195.779 140.151 196.505 140.714 197.442C141.277 198.378 141.559 199.428 141.559 200.593C141.559 202.05 141.037 203.485 139.994 204.9ZM135.287 204.375C134.227 204.375 133.36 204.04 132.685 203.371C132.011 202.701 131.669 201.821 131.661 200.731C131.653 199.657 131.992 198.785 132.679 198.116C133.366 197.446 134.236 197.111 135.287 197.111C136.355 197.111 137.216 197.435 137.87 198.084C138.524 198.733 138.851 199.607 138.851 200.706C138.851 201.746 138.518 202.617 137.852 203.321C137.185 204.024 136.33 204.375 135.287 204.375ZM146.917 212.252C146.574 212.593 146.162 212.763 145.682 212.763C145.21 212.763 144.8 212.591 144.452 212.245C144.105 211.9 143.931 211.49 143.931 211.016C143.931 210.533 144.105 210.119 144.452 209.774C144.8 209.429 145.21 209.256 145.682 209.256C146.162 209.256 146.574 209.429 146.917 209.774C147.261 210.119 147.433 210.533 147.433 211.016C147.433 211.498 147.261 211.91 146.917 212.252ZM154.052 212.514L162.385 196.998V194.714H150.078V197.298H159.169L150.798 212.514H154.052ZM174.282 209.031V212.514H171.426V209.031H163.105V206.435L169.923 194.714H174.282V206.447H176.716V209.031H174.282ZM171.426 206.447H165.887L171.426 196.562V206.447ZM182.851 212.526L192.215 194.689H189.731L180.392 212.526H182.851ZM180.119 199.738C180.5 200.117 180.955 200.306 181.485 200.306C182.032 200.306 182.489 200.117 182.857 199.738C183.226 199.36 183.41 198.9 183.41 198.359C183.41 197.826 183.224 197.373 182.851 196.998C182.479 196.624 182.023 196.437 181.485 196.437C180.955 196.437 180.5 196.622 180.119 196.992C179.738 197.363 179.548 197.818 179.548 198.359C179.548 198.9 179.738 199.36 180.119 199.738ZM191.259 212.726C192.327 212.726 193.235 212.343 193.985 211.578C194.734 210.812 195.109 209.892 195.109 208.819C195.109 207.737 194.732 206.816 193.979 206.054C193.225 205.293 192.319 204.912 191.259 204.912C190.183 204.912 189.264 205.293 188.502 206.054C187.74 206.816 187.359 207.737 187.359 208.819C187.359 209.901 187.738 210.822 188.496 211.584C189.253 212.345 190.174 212.726 191.259 212.726ZM189.88 210.186C190.253 210.564 190.712 210.754 191.259 210.754C191.789 210.754 192.244 210.564 192.625 210.186C193.006 209.807 193.196 209.352 193.196 208.819C193.196 208.286 193.004 207.829 192.619 207.446C192.234 207.063 191.78 206.872 191.259 206.872C190.712 206.872 190.253 207.059 189.88 207.433C189.508 207.808 189.321 208.27 189.321 208.819C189.321 209.352 189.508 209.807 189.88 210.186Z" fill="#343A40"/>
<defs>
<filter id="filter0_d_875_3501" x="0" y="0" width="177" height="163" filterUnits="userSpaceOnUse" color-interpolation-filters="sRGB">
<feFlood flood-opacity="0" result="BackgroundImageFix"/>
<feColorMatrix in="SourceAlpha" type="matrix" values="0 0 0 0 0 0 0 0 0 0 0 0 0 0 0 0 0 0 127 0" result="hardAlpha"/>
<feOffset dy="6"/>
<feGaussianBlur stdDeviation="6"/>
<feColorMatrix type="matrix" values="0 0 0 0 0.311766 0 0 0 0 0.336514 0 0 0 0 0.386011 0 0 0 0.03 0"/>
<feBlend mode="normal" in2="BackgroundImageFix" result="effect1_dropShadow_875_3501"/>
<feBlend mode="normal" in="SourceGraphic" in2="effect1_dropShadow_875_3501" result="shape"/>
</filter>
<filter id="filter1_d_875_3501" x="165" y="0" width="177" height="163" filterUnits="userSpaceOnUse" color-interpolation-filters="sRGB">
<feFlood flood-opacity="0" result="BackgroundImageFix"/>
<feColorMatrix in="SourceAlpha" type="matrix" values="0 0 0 0 0 0 0 0 0 0 0 0 0 0 0 0 0 0 127 0" result="hardAlpha"/>
<feOffset dy="6"/>
<feGaussianBlur stdDeviation="6"/>
<feColorMatrix type="matrix" values="0 0 0 0 0.311766 0 0 0 0 0.336514 0 0 0 0 0.386011 0 0 0 0.03 0"/>
<feBlend mode="normal" in2="BackgroundImageFix" result="effect1_dropShadow_875_3501"/>
<feBlend mode="normal" in="SourceGraphic" in2="effect1_dropShadow_875_3501" result="shape"/>
</filter>
<filter id="filter2_d_875_3501" x="83" y="147" width="177" height="163" filterUnits="userSpaceOnUse" color-interpolation-filters="sRGB">
<feFlood flood-opacity="0" result="BackgroundImageFix"/>
<feColorMatrix in="SourceAlpha" type="matrix" values="0 0 0 0 0 0 0 0 0 0 0 0 0 0 0 0 0 0 127 0" result="hardAlpha"/>
<feOffset dy="6"/>
<feGaussianBlur stdDeviation="6"/>
<feColorMatrix type="matrix" values="0 0 0 0 0.311766 0 0 0 0 0.336514 0 0 0 0 0.386011 0 0 0 0.03 0"/>
<feBlend mode="normal" in2="BackgroundImageFix" result="effect1_dropShadow_875_3501"/>
<feBlend mode="normal" in="SourceGraphic" in2="effect1_dropShadow_875_3501" result="shape"/>
</filter>
</defs>
</svg>
